# xmcd
#
# Track frame offsets: 
#        183
#        11943
#        24750
#        39540
#        50533
#        65835
#        78130
#        90515
#        99268
#        109548
#        120998
#        133243
#        143285
#        156420
#        168900
#        179910
#        191768
#        206068
#        217705
#        228928
#
# Disc length: 3178 seconds
#
# Revision: 0
# Processed by: cddbd v1.5.2PL0 Copyright (c) Steve Scherf et al.
# Submitted via: ExactAudioCopyFreeDBPlugin 1.0
#
DISCID=070c6814
DTITLE=Sonny Boy Williamson - Bring It On Home
DYEAR=1994
DGENRE=Blues
TTITLE0=Don't Start Me Talkin'
TTITLE1=All My Love In Vain
TTITLE2=The Key (To Your Door)
TTITLE3=I Don't Know
TTITLE4=Cross My Heart
TTITLE5=Dissatisfied
TTITLE6=Santa Claus
TTITLE7=Checkin' Up On My Baby
TTITLE8=Temperature 110
TTITLE9=Down Child
TTITLE10=Trust My Baby
TTITLE11=Too Close Together
TTITLE12=Too Young To Die
TTITLE13=The Hunt
TTITLE14=Got To Move
TTITLE15=Bye Bye Bird
TTITLE16=Help Me
TTITLE17=Bring It On Home
TTITLE18=One Way Out
TTITLE19=Tryin' To Get Back On My Feet
EXTD=
EXTT0=
EXTT1=
EXTT2=
EXTT3=
EXTT4=
EXTT5=
EXTT6=
EXTT7=
EXTT8=
EXTT9=
EXTT10=
EXTT11=
EXTT12=
EXTT13=
EXTT14=
EXTT15=
EXTT16=
EXTT17=
EXTT18=
EXTT19=
PLAYORDER=
